# xmcd
#
# Track frame offsets:
#       150
#       12882
#       22030
#       30415
#       40455
#       50355
#       63397
#       76090
#       91027
#       104007
#       113705
#       128132
#       137145
#       147557
#       165427
#
# Disc length: 2341 seconds
#
# Revision: 0
# Processed by: cddbd v1.4PL0 Copyright (c) Steve Scherf et al.
# Submitted via: CD-DA_X-Tractor v0.23
#
DISCID=c109230f
DTITLE=Julie London - Sophisticated Lady Three
DYEAR=1998
DGENRE=
TTITLE0=Call Me Irresponsible
TTITLE1=Diamonds Are A Girls Best Friend
TTITLE2=Hot Toddy
TTITLE3=I've Got A Crush On You
TTITLE4=Baby Wont You Please Come Home
TTITLE5=Bewitched
TTITLE6=I Left My Heart In San Franscisco
TTITLE7=I Should Care
TTITLE8=Love Letters
TTITLE9=Must Be Catchin
TTITLE10=It Could Happen To You
TTITLE11=Memphis In June
TTITLE12=If I'm Lucky
TTITLE13=I Got It Bad
TTITLE14=You Made Me Love You
EXTD=
EXTT0=
EXTT1=
EXTT2=
EXTT3=
EXTT4=
EXTT5=
EXTT6=
EXTT7=
EXTT8=
EXTT9=
EXTT10=
EXTT11=
EXTT12=
EXTT13=
EXTT14=
PLAYORDER=
